<?xml version="1.0" standalone="no"?>
<!DOCTYPE svg PUBLIC "-//W3C//DTD SVG 20010904//EN"
 "http://www.w3.org/TR/2001/REC-SVG-20010904/DTD/svg10.dtd">
<svg version="1.0" xmlns="http://www.w3.org/2000/svg"
 width="16.000000pt" height="16.000000pt" viewBox="0 0 16.000000 16.000000"
 preserveAspectRatio="xMidYMid meet">
<g transform="translate(0.000000,16.000000) scale(0.002286,-0.002286)"
fill="#000000" stroke="none">
<path d="M3470 6972 c-8 -4 -221 -131 -473 -282 -252 -151 -472 -283 -490
-294 -70 -40 -1454 -870 -1487 -891 -19 -12 -98 -60 -175 -106 -77 -46 -149
-89 -160 -96 -11 -7 -29 -17 -40 -23 -11 -6 -51 -29 -90 -53 l-69 -42 -1
-1704 c0 -936 2 -1706 5 -1711 3 -4 21 -17 40 -28 19 -11 80 -46 135 -77 55
-32 116 -66 135 -77 19 -11 139 -80 265 -153 334 -192 564 -324 615 -353 25
-14 57 -33 72 -43 14 -11 28 -19 31 -19 3 0 76 -41 164 -92 87 -50 172 -99
188 -108 27 -16 177 -102 260 -150 17 -9 134 -77 260 -150 263 -152 285 -165
340 -195 22 -13 81 -46 130 -75 83 -49 129 -75 212 -121 17 -10 50 -29 72 -43
22 -15 45 -26 49 -26 5 0 21 -11 36 -25 l26 -24 318 186 c174 102 335 196 357
208 22 13 292 170 600 350 308 180 576 337 595 347 19 11 87 51 150 88 185
109 693 406 840 491 l135 78 0 1708 0 1708 -130 79 c-71 43 -146 87 -165 98
-19 11 -262 156 -540 323 -871 522 -1264 757 -1295 775 -16 10 -84 50 -150 90
-144 87 -632 378 -660 394 -11 6 -31 19 -44 29 -25 18 -37 20 -61 9z"/>
</g>
</svg>
