<!DOCTYPE svg PUBLIC "-//W3C//DTD SVG 20010904//EN" "http://www.w3.org/TR/2001/REC-SVG-20010904/DTD/svg10.dtd">
<svg version="1.0" xmlns="http://www.w3.org/2000/svg" width="1600px" height="1200px" viewBox="0 0 16000 12000" preserveAspectRatio="xMidYMid meet">
<g id="layer1" fill="#000000" stroke="none">
 <path d="M0 6000 l0 -6000 8000 0 8000 0 0 6000 0 6000 -8000 0 -8000 0 0 -6000z m3305 5779 c611 -614 1356 -1192 1993 -1547 l143 -79 39 -115 c133 -397 378 -707 699 -883 l73 -40 -7 -155 c-21 -510 -112 -861 -261 -1006 -34 -33 -57 -45 -110 -58 -286 -72 -548 -333 -608 -608 -4 -18 -14 -29 -29 -32 -12 -3 -71 -15 -130 -26 -315 -62 -622 -219 -844 -434 -223 -214 -348 -437 -415 -737 -19 -88 -23 -133 -23 -294 l0 -190 -1665 513 c-916 282 -1764 543 -1885 580 l-220 67 -3 2608 -2 2607 1543 0 1542 0 170 -171z m2011 -287 c1 -555 21 -845 79 -1127 13 -65 22 -121 20 -123 -2 -2 -64 30 -137 71 -585 331 -1295 879 -1858 1434 l-205 202 1050 1 1050 0 1 -458z m1554 453 c0 -2 -58 -120 -129 -262 -144 -289 -232 -487 -314 -708 -136 -368 -234 -774 -289 -1193 -20 -154 -20 -164 -4 -180 16 -16 18 -16 35 5 13 16 20 48 26 115 4 54 10 86 15 78 14 -27 48 -610 35 -610 -17 0 -177 105 -251 164 -278 223 -469 606 -553 1111 -45 267 -53 398 -58 953 l-5 532 746 0 c410 0 746 -2 746 -5z m2069 -47 c-5 -29 -16 -156 -24 -283 -26 -397 -46 -556 -90 -723 -26 -99 -79 -221 -113 -262 -20 -24 -21 -24 -28 -5 -4 11 -26 68 -50 127 -89 220 -126 267 -222 279 -202 26 -591 20 -817 -12 -411 -59 -831 -207 -1157 -410 -70 -43 -79 -46 -73 -26 101 357 242 703 485 1186 l91 181 1003 0 1003 0 -8 -52z m989 -5 c-77 -499 -387 -1247 -735 -1774 -45 -70 -103 -152 -127 -184 l-45 -57 -21 33 c-65 103 -280 580 -280 621 0 4 20 35 44 68 112 152 168 385 201 840 20 292 35 461 42 488 l5 22 463 0 462 0 -9 -57z m438 -90 c-133 -260 -297 -500 -449 -655 -68 -68 -175 -158 -189 -158 -3 0 16 57 43 128 102 264 188 562 219 760 l12 72 219 0 220 0 -75 -147z m5584 -4814 c0 -4720 -1 -4960 -17 -4955 -10 3 -292 87 -628 186 -335 100 -790 235 -1010 300 -220 65 -1154 342 -2075 615 -921 272 -1696 503 -1722 511 l-47 15 -6 57 c-20 191 -68 366 -132 482 -52 94 -189 228 -274 268 -91 44 -177 62 -291 62 -111 0 -108 -3 -84 86 26 97 65 154 207 296 154 154 179 193 179 284 l0 59 83 39 c68 32 97 53 172 130 76 76 99 107 138 186 26 52 59 140 73 195 23 86 27 121 27 250 1 180 -20 282 -86 415 -49 101 -162 222 -243 261 l-50 25 84 22 c192 49 323 148 358 268 21 72 14 176 -16 258 -26 67 -93 144 -155 177 -42 22 -45 26 -39 54 10 48 68 167 115 236 102 152 175 237 379 440 241 240 270 281 270 376 0 118 -91 214 -255 266 -139 45 -222 52 -632 52 l-392 0 15 23 c8 12 19 47 25 77 8 43 7 60 -5 83 -23 45 -131 139 -270 237 -311 217 -459 338 -544 441 -23 28 -42 54 -42 58 0 4 26 42 58 84 158 208 307 457 459 767 l103 212 83 53 c219 143 515 526 687 893 l55 116 2723 1 2722 0 0 -4961z m-7705 3990 c126 -7 197 -15 211 -24 29 -19 83 -127 149 -300 175 -461 261 -651 377 -828 105 -160 254 -290 644 -562 71 -49 152 -113 181 -141 49 -46 53 -54 53 -96 0 -105 -56 -126 -360 -138 -330 -14 -639 9 -770 55 -39 14 -45 14 -59 0 -24 -24 -2 -47 65 -68 171 -52 427 -65 945 -46 468 17 903 17 1020 1 319 -45 455 -163 375 -325 -19 -40 -71 -97 -209 -233 -299 -292 -462 -509 -522 -692 -12 -37 -21 -52 -31 -48 -36 14 -195 37 -354 51 -96 9 -209 23 -250 31 -95 18 -109 18 -117 -2 -16 -44 68 -65 381 -94 433 -42 545 -104 575 -325 22 -151 -30 -241 -178 -307 -138 -63 -330 -94 -638 -105 -192 -6 -195 -7 -232 -34 -21 -15 -80 -78 -130 -141 -135 -166 -207 -217 -307 -218 l-50 0 -18 58 c-38 120 -117 232 -165 232 -38 0 -36 -28 7 -74 61 -67 93 -136 116 -258 l13 -67 -51 -20 c-251 -99 -739 -109 -1241 -26 -268 45 -516 120 -588 177 l-28 23 20 56 c27 78 48 117 72 129 25 14 22 53 -4 58 -102 20 -203 -330 -195 -674 2 -119 6 -146 20 -160 14 -14 20 -15 32 -4 13 10 15 30 10 124 -4 62 -4 133 0 159 l7 47 29 -20 c82 -58 316 -142 520 -185 436 -92 1061 -98 1318 -14 35 12 66 19 69 16 10 -11 -39 -174 -77 -254 -67 -144 -156 -248 -271 -320 -60 -36 -76 -67 -43 -80 22 -8 70 19 148 83 85 70 157 160 211 265 43 84 95 239 95 285 0 35 13 36 71 9 72 -32 274 -90 424 -120 309 -63 626 -55 867 21 44 14 82 24 84 22 10 -10 -41 -162 -84 -248 -101 -206 -287 -329 -498 -330 -44 0 -65 -5 -75 -16 -11 -14 -10 -19 10 -35 21 -17 34 -19 97 -13 l74 7 0 -42 c0 -71 -25 -108 -169 -255 -76 -78 -150 -163 -166 -189 -31 -55 -65 -156 -65 -197 0 -31 -14 -40 -65 -40 -61 0 -267 -30 -450 -66 -180 -36 -460 -98 -1145 -258 -891 -206 -1500 -306 -1874 -306 l-90 0 74 67 c155 139 325 311 391 396 111 143 174 296 167 404 -3 45 -5 48 -33 51 -45 5 -94 -12 -275 -98 -233 -110 -371 -153 -564 -175 l-60 -7 123 128 c209 217 365 443 515 744 228 459 348 938 347 1390 0 177 -8 265 -37 392 -25 108 -47 104 -115 -20 -180 -329 -397 -528 -611 -562 -216 -34 -426 116 -518 369 -75 206 -58 367 58 538 141 207 412 360 600 339 61 -7 146 -38 174 -63 21 -19 50 -9 56 19 5 24 -81 75 -158 94 l-67 18 39 49 c83 105 150 284 188 502 38 219 45 321 45 695 -1 357 -7 473 -42 772 l-17 147 27 128 c15 70 36 160 45 198 l18 70 85 53 c105 65 349 190 454 232 307 123 636 198 964 219 185 12 199 12 406 0z m-2981 -3850 c32 -280 247 -546 475 -589 266 -50 531 127 764 508 33 54 53 78 58 70 18 -33 32 -250 26 -412 -20 -559 -233 -1188 -565 -1671 -101 -146 -204 -269 -340 -404 -162 -160 -164 -168 -31 -163 209 7 401 61 659 182 91 43 180 82 198 88 l33 11 -7 -37 c-39 -216 -148 -362 -534 -712 -74 -67 -136 -129 -138 -137 -11 -46 45 -51 318 -33 496 34 971 118 1940 345 1051 246 1267 285 1580 288 201 1 258 -12 366 -81 366 -237 423 -944 139 -1707 -222 -596 -623 -1121 -1120 -1467 -89 -62 -326 -200 -332 -194 -3 2 43 102 102 223 218 446 299 670 340 941 27 179 11 450 -29 491 -14 13 -19 12 -47 -14 -53 -51 -188 -238 -386 -535 -316 -476 -410 -598 -623 -810 -191 -191 -350 -304 -521 -370 -87 -33 -198 -64 -205 -57 -3 2 31 65 74 138 109 184 163 288 215 410 126 296 191 589 204 921 5 141 4 158 -11 164 -9 3 -114 -21 -234 -55 -715 -200 -1191 -246 -1602 -155 -207 46 -365 114 -541 233 -246 165 -455 399 -658 734 -29 48 -58 87 -64 87 -7 0 -80 -44 -162 -97 -230 -149 -408 -236 -603 -293 l-62 -19 6 27 c29 129 57 204 130 351 114 226 127 294 72 357 -52 59 -131 105 -463 269 -170 85 -332 168 -359 185 l-49 32 29 17 c47 28 167 75 379 146 206 70 377 133 478 178 69 31 71 43 21 136 -122 225 -236 556 -280 816 -24 141 -24 429 0 550 118 595 557 1011 1216 1155 139 30 136 31 144 -41z m4815 -414 c207 -49 345 -225 395 -502 l5 -32 -71 -16 c-233 -53 -601 -66 -833 -31 -245 38 -545 129 -545 166 0 14 11 19 53 24 115 15 203 80 341 254 47 59 95 114 108 122 17 11 67 16 188 21 280 9 293 9 359 -6z m-9379 -244 c338 -104 1179 -363 1869 -575 689 -213 1257 -389 1262 -392 5 -3 9 -16 9 -30 0 -49 43 -231 86 -365 51 -159 105 -292 175 -431 28 -55 49 -101 47 -103 -10 -8 -227 -92 -346 -134 l-140 -49 -169 58 c-297 103 -2125 737 -2213 768 -47 16 -343 118 -657 227 l-573 199 0 513 c0 485 1 514 18 509 9 -3 294 -91 632 -195z m6405 -141 c133 -76 503 -163 836 -196 l67 -7 -20 -34 c-15 -25 -19 -45 -15 -78 2 -25 2 -45 -2 -45 -4 0 -63 7 -131 15 -222 28 -437 79 -609 145 -84 33 -204 100 -203 116 1 34 14 114 19 114 3 0 29 -13 58 -30z m1873 -166 c2 -21 -1 -57 -5 -79 -9 -39 -11 -41 -83 -66 -117 -41 -270 -59 -504 -59 l-204 0 15 30 c16 34 10 84 -14 111 -13 15 -7 16 74 12 187 -11 504 27 643 76 30 11 60 18 65 17 6 -1 11 -20 13 -42z m343 -43 c171 -43 297 -60 480 -68 l157 -6 -20 -34 c-25 -42 -19 -95 14 -131 l23 -24 -155 5 c-120 4 -188 12 -301 36 -171 36 -361 92 -430 127 l-49 24 0 80 0 79 78 -28 c43 -16 135 -43 203 -60z m1169 -49 c0 -20 -3 -54 -7 -75 -5 -34 -12 -41 -47 -57 -54 -23 -196 -59 -265 -67 l-55 -6 22 28 c30 38 29 95 -2 133 l-25 29 112 13 c62 7 144 21 182 30 39 9 73 15 78 13 4 -2 7 -21 7 -41z m-9395 -857 c545 -189 1145 -397 1335 -463 190 -66 519 -180 732 -253 213 -74 388 -137 388 -140 0 -3 -26 -13 -57 -23 -130 -40 -283 -127 -283 -160 0 -20 70 -81 138 -119 34 -20 198 -104 365 -186 166 -83 324 -166 351 -186 l48 -37 -4 -64 c-3 -57 -13 -82 -81 -213 -70 -136 -137 -307 -137 -350 0 -9 -21 -37 -46 -61 -144 -141 -241 -338 -279 -570 -25 -149 -17 -399 18 -531 27 -105 70 -198 111 -242 31 -34 59 -31 112 9 105 80 286 397 572 1004 225 476 287 595 325 624 19 14 38 26 43 26 5 -1 47 -60 93 -132 47 -72 113 -166 148 -210 l63 -79 -521 -882 c-287 -485 -617 -1042 -732 -1237 l-211 -355 -1405 704 c-773 387 -1568 787 -1766 887 l-360 183 -3 1710 -2 1711 27 -11 c16 -6 473 -165 1018 -354z m10060 -1830 c363 -108 1092 -324 1620 -480 528 -157 1457 -432 2065 -613 l1105 -327 3 -828 c1 -455 0 -827 -2 -827 -4 0 -97 32 -2231 765 -715 246 -1509 518 -1765 606 -256 88 -773 266 -1150 395 l-685 236 44 91 c163 343 266 727 287 1075 7 109 8 113 28 108 12 -3 318 -93 681 -201z m-6643 -331 c-27 -55 -107 -220 -177 -369 -217 -459 -358 -730 -457 -879 -47 -71 -117 -146 -135 -146 -16 0 -65 96 -87 170 -42 139 -57 350 -35 507 30 226 102 391 246 562 2 3 9 -1 15 -7 19 -19 45 -14 188 34 142 47 311 124 420 192 36 22 66 39 68 37 2 -2 -19 -47 -46 -101z m836 -488 c34 -27 62 -53 62 -57 0 -5 -23 -42 -52 -81 -105 -147 -393 -588 -486 -743 -114 -191 -164 -296 -166 -347 -1 -46 42 -102 105 -138 64 -36 212 -41 330 -11 91 23 221 81 297 133 193 131 357 382 407 620 17 77 19 252 6 311 -8 33 -7 38 7 32 32 -12 169 -46 252 -61 114 -21 456 -30 602 -15 268 28 582 91 913 185 105 29 191 52 193 51 1 -1 -2 -70 -8 -152 -18 -255 -58 -459 -133 -678 -65 -190 -130 -320 -332 -668 -31 -54 -55 -106 -53 -115 9 -42 221 1 382 77 277 133 562 398 843 786 44 61 167 241 273 400 249 373 328 481 343 466 8 -8 11 -65 11 -174 -2 -330 -78 -575 -363 -1164 -121 -249 -136 -294 -99 -301 19 -4 180 75 297 145 199 120 355 245 551 442 207 209 365 415 507 662 l49 86 35 -13 c18 -7 619 -214 1334 -459 2058 -707 2094 -719 2094 -730 0 -5 -122 -234 -272 -507 l-272 -498 -4380 1 -4380 0 -302 152 -302 152 292 495 c161 272 487 824 725 1226 l432 731 98 -96 c53 -53 125 -118 160 -145z m210 -145 c45 -26 111 -60 146 -75 61 -26 64 -29 76 -74 31 -123 21 -286 -25 -422 -54 -159 -179 -346 -292 -435 -71 -56 -236 -139 -323 -162 -92 -25 -253 -24 -300 1 -45 23 -69 54 -70 87 0 31 80 190 175 349 131 217 509 780 524 780 4 0 45 -22 89 -49z m-2658 -1762 l1205 -604 -1098 -3 -1098 -2 -197 107 c-250 135 -777 420 -1274 689 l-388 209 0 518 0 518 823 -414 c452 -228 1364 -686 2027 -1018z m11098 252 c207 -71 661 -227 1007 -346 347 -119 700 -241 785 -269 l155 -53 3 -96 3 -97 -1436 0 c-929 0 -1435 3 -1433 10 5 15 533 979 536 980 2 0 173 -58 380 -129z m-13130 -367 c444 -240 830 -449 857 -465 l50 -29 -862 0 -863 0 0 465 c0 256 2 465 5 465 3 0 369 -196 813 -436z"/>
 <path d="M5997 7560 c-95 -24 -183 -98 -233 -198 -26 -52 -29 -66 -29 -157 0 -89 3 -107 28 -160 16 -33 40 -73 55 -89 l27 -28 -55 5 c-49 4 -58 9 -91 46 -23 26 -48 71 -65 119 -30 86 -45 108 -68 99 -22 -9 -20 -45 5 -114 59 -159 163 -240 271 -212 24 5 68 12 99 13 88 4 156 57 238 184 52 82 57 100 36 121 -15 15 -18 14 -36 -9 -11 -14 -42 -59 -69 -102 -106 -167 -214 -173 -286 -16 -37 81 -40 196 -7 269 52 114 138 169 266 169 61 0 79 3 84 16 3 8 -1 22 -9 30 -18 19 -110 26 -161 14z"/>
 </g>
<g id="layer2" fill="#163234" stroke="none">
 <path d="M9130 9710 c0 -5 5 -10 10 -10 6 0 10 5 10 10 0 6 -4 10 -10 10 -5 0 -10 -4 -10 -10z"/>
 <path d="M9850 9150 c0 -5 5 -10 10 -10 6 0 10 5 10 10 0 6 -4 10 -10 10 -5 0 -10 -4 -10 -10z"/>
 <path d="M9950 8895 c0 -8 7 -15 15 -15 8 0 15 7 15 15 0 8 -7 15 -15 15 -8 0 -15 -7 -15 -15z"/>
 <path d="M10590 8895 c0 -8 5 -15 10 -15 6 0 10 7 10 15 0 8 -4 15 -10 15 -5 0 -10 -7 -10 -15z"/>
 <path d="M11080 8740 c0 -5 5 -10 10 -10 6 0 10 5 10 10 0 6 -4 10 -10 10 -5 0 -10 -4 -10 -10z"/>
 <path d="M11140 8590 c0 -5 7 -10 15 -10 8 0 15 5 15 10 0 6 -7 10 -15 10 -8 0 -15 -4 -15 -10z"/>
 <path d="M5430 7610 c0 -5 5 -10 10 -10 6 0 10 5 10 10 0 6 -4 10 -10 10 -5 0 -10 -4 -10 -10z"/>
 <path d="M10170 4361 c0 -13 29 -35 37 -28 7 8 -15 37 -28 37 -5 0 -9 -4 -9 -9z"/>
 <path d="M3620 3920 c0 -5 7 -10 15 -10 8 0 15 5 15 10 0 6 -7 10 -15 10 -8 0 -15 -4 -15 -10z"/>
 <path d="M4490 3138 c-126 -76 -268 -142 -420 -192 -135 -46 -180 -55 -180 -36 0 27 -33 3 -85 -62 -104 -130 -177 -314 -204 -511 -30 -220 7 -488 87 -631 42 -76 53 -79 108 -26 115 111 264 379 559 1005 70 149 152 318 181 377 53 106 61 128 47 128 -5 0 -46 -23 -93 -52z"/>
 <path d="M5445 2476 c-68 -94 -468 -699 -520 -786 -94 -156 -175 -318 -175 -347 0 -36 35 -80 83 -106 36 -19 58 -22 142 -22 62 0 124 7 165 18 90 24 253 106 325 164 150 122 278 324 332 524 21 80 22 290 2 362 -14 47 -15 48 -99 86 -47 20 -116 56 -154 79 -74 46 -86 49 -101 28z"/>
 <path d="M10090 2310 c0 -5 7 -10 15 -10 8 0 15 5 15 10 0 6 -7 10 -15 10 -8 0 -15 -4 -15 -10z"/>
 <path d="M7587 1383 c-4 -3 -7 -11 -7 -17 0 -6 5 -5 12 2 6 6 9 14 7 17 -3 3 -9 2 -12 -2z"/>
 <path d="M8190 1320 c0 -5 5 -10 10 -10 6 0 10 5 10 10 0 6 -4 10 -10 10 -5 0 -10 -4 -10 -10z"/>
 <path d="M8820 1300 c-6 -12 -9 -24 -7 -27 3 -2 11 5 17 17 6 12 9 24 7 27 -3 2 -11 -5 -17 -17z"/>
 <path d="M8090 1220 c0 -5 5 -10 10 -10 6 0 10 5 10 10 0 6 -4 10 -10 10 -5 0 -10 -4 -10 -10z"/>
 <path d="M4960 1175 c0 -8 5 -15 10 -15 6 0 10 7 10 15 0 8 -4 15 -10 15 -5 0 -10 -7 -10 -15z"/>
 <path d="M8800 990 c-8 -5 -12 -12 -8 -15 9 -9 48 4 48 16 0 12 -21 11 -40 -1z"/>
 <path d="M3200 562 c0 -8 104 -62 120 -62 25 0 5 18 -45 43 -58 28 -75 33 -75 19z"/>
 <path d="M3360 480 c0 -5 7 -10 15 -10 8 0 15 5 15 10 0 6 -7 10 -15 10 -8 0 -15 -4 -15 -10z"/>
 </g>
<g id="layer3" fill="#551515" stroke="none">
 <path d="M3200 11955 c0 -13 125 -15 1065 -15 940 0 1065 2 1065 15 0 13 -125 15 -1065 15 -940 0 -1065 -2 -1065 -15z"/>
 <path d="M5370 11955 c0 -13 90 -15 750 -15 739 0 751 0 740 -19 -15 -29 -12 -39 5 -17 8 11 15 30 15 43 l0 23 -755 0 c-664 0 -755 -2 -755 -15z"/>
 <path d="M9000 11955 c0 -13 59 -15 481 -15 380 0 480 3 477 13 -4 9 -111 13 -481 15 -420 2 -477 0 -477 -13z"/>
 <path d="M9990 11955 c0 -13 32 -15 236 -15 184 0 235 3 232 13 -4 9 -62 13 -236 15 -202 2 -232 0 -232 -13z"/>
 <path d="M6827 11853 c-4 -3 -7 -11 -7 -17 0 -6 5 -5 12 2 6 6 9 14 7 17 -3 3 -9 2 -12 -2z"/>
 <path d="M5310 11775 c0 -33 4 -45 15 -45 11 0 15 12 15 45 0 33 -4 45 -15 45 -11 0 -15 -12 -15 -45z"/>
 <path d="M6797 11793 c-4 -3 -7 -11 -7 -17 0 -6 5 -5 12 2 6 6 9 14 7 17 -3 3 -9 2 -12 -2z"/>
 <path d="M6747 11693 c-4 -3 -7 -11 -7 -17 0 -6 5 -5 12 2 6 6 9 14 7 17 -3 3 -9 2 -12 -2z"/>
 <path d="M6700 11600 c-12 -23 -19 -44 -16 -47 2 -3 14 14 26 37 12 23 19 44 16 47 -2 3 -14 -14 -26 -37z"/>
 <path d="M3560 11590 c0 -5 5 -10 10 -10 6 0 10 5 10 10 0 6 -4 10 -10 10 -5 0 -10 -4 -10 -10z"/>
 <path d="M3680 11480 c0 -5 5 -10 10 -10 6 0 10 5 10 10 0 6 -4 10 -10 10 -5 0 -10 -4 -10 -10z"/>
 <path d="M8940 11415 c0 -8 7 -15 15 -15 8 0 15 7 15 15 0 8 -7 15 -15 15 -8 0 -15 -7 -15 -15z"/>
 <path d="M5310 11230 c0 -20 5 -30 15 -30 10 0 15 10 15 30 0 20 -5 30 -15 30 -10 0 -15 -10 -15 -30z"/>
 <path d="M9900 11135 c-13 -14 -20 -28 -17 -32 8 -7 57 35 57 49 0 15 -16 8 -40 -17z"/>
 <path d="M5360 11030 c0 -5 7 -10 15 -10 8 0 15 5 15 10 0 6 -7 10 -15 10 -8 0 -15 -4 -15 -10z"/>
 <path d="M9690 10970 c0 -5 7 -10 15 -10 8 0 15 5 15 10 0 6 -7 10 -15 10 -8 0 -15 -4 -15 -10z"/>
 <path d="M5370 10865 c0 -8 7 -15 15 -15 8 0 15 7 15 15 0 8 -7 15 -15 15 -8 0 -15 -7 -15 -15z"/>
 <path d="M5330 10800 c0 -5 7 -10 15 -10 8 0 15 5 15 10 0 6 -7 10 -15 10 -8 0 -15 -4 -15 -10z"/>
 <path d="M5340 10700 c0 -5 7 -10 15 -10 8 0 15 5 15 10 0 6 -7 10 -15 10 -8 0 -15 -4 -15 -10z"/>
 <path d="M6200 9880 c0 -5 5 -10 10 -10 6 0 10 5 10 10 0 6 -4 10 -10 10 -5 0 -10 -4 -10 -10z"/>
 <path d="M6230 9540 c0 -5 7 -10 15 -10 8 0 15 5 15 10 0 6 -7 10 -15 10 -8 0 -15 -4 -15 -10z"/>
 <path d="M5860 9460 c0 -5 5 -10 10 -10 6 0 10 5 10 10 0 6 -4 10 -10 10 -5 0 -10 -4 -10 -10z"/>
 <path d="M5922 9399 c2 -7 10 -15 17 -17 8 -3 12 1 9 9 -2 7 -10 15 -17 17 -8 3 -12 -1 -9 -9z"/>
 <path d="M4130 4721 c0 -5 5 -13 10 -16 6 -3 10 -2 10 4 0 5 -4 13 -10 16 -5 3 -10 2 -10 -4z"/>
 <path d="M6250 3845 c0 -8 5 -15 10 -15 6 0 10 7 10 15 0 8 -4 15 -10 15 -5 0 -10 -7 -10 -15z"/>
 <path d="M5200 2762 c0 -14 49 -56 57 -49 3 4 -4 18 -17 32 -24 25 -40 32 -40 17z"/>
 </g>
<g id="layer4" fill="#203942" stroke="none">
 <path d="M40 11955 c0 -13 179 -15 1550 -15 1371 0 1550 2 1550 15 0 13 -179 15 -1550 15 -1371 0 -1550 -2 -1550 -15z"/>
 <path d="M10500 11955 c0 -13 310 -15 2730 -15 2420 0 2730 2 2730 15 0 13 -310 15 -2730 15 -2420 0 -2730 -2 -2730 -15z"/>
 <path d="M3320 11760 c0 -5 5 -10 10 -10 6 0 10 5 10 10 0 6 -4 10 -10 10 -5 0 -10 -4 -10 -10z"/>
 <path d="M5800 9460 c0 -5 5 -10 10 -10 6 0 10 5 10 10 0 6 -4 10 -10 10 -5 0 -10 -4 -10 -10z"/>
 <path d="M9900 9020 c0 -5 7 -10 15 -10 8 0 15 5 15 10 0 6 -7 10 -15 10 -8 0 -15 -4 -15 -10z"/>
 <path d="M6230 8780 c0 -5 7 -10 15 -10 8 0 15 5 15 10 0 6 -7 10 -15 10 -8 0 -15 -4 -15 -10z"/>
 <path d="M9880 4940 c0 -5 5 -10 10 -10 6 0 10 5 10 10 0 6 -4 10 -10 10 -5 0 -10 -4 -10 -10z"/>
 <path d="M10420 3720 c0 -5 7 -10 15 -10 8 0 15 5 15 10 0 6 -7 10 -15 10 -8 0 -15 -4 -15 -10z"/>
 <path d="M3887 3003 c-4 -3 -7 -11 -7 -17 0 -6 5 -5 12 2 6 6 9 14 7 17 -3 3 -9 2 -12 -2z"/>
 <path d="M5110 2790 c0 -5 5 -10 10 -10 6 0 10 5 10 10 0 6 -4 10 -10 10 -5 0 -10 -4 -10 -10z"/>
 <path d="M5250 2650 c0 -5 5 -10 10 -10 6 0 10 5 10 10 0 6 -4 10 -10 10 -5 0 -10 -4 -10 -10z"/>
 <path d="M9140 2450 c0 -5 7 -10 15 -10 8 0 15 5 15 10 0 6 -7 10 -15 10 -8 0 -15 -4 -15 -10z"/>
 <path d="M7810 2385 c0 -8 7 -15 15 -15 8 0 15 7 15 15 0 8 -7 15 -15 15 -8 0 -15 -7 -15 -15z"/>
 <path d="M9140 2320 c0 -5 7 -10 15 -10 8 0 15 5 15 10 0 6 -7 10 -15 10 -8 0 -15 -4 -15 -10z"/>
 <path d="M630 1850 c0 -5 7 -10 15 -10 8 0 15 5 15 10 0 6 -7 10 -15 10 -8 0 -15 -4 -15 -10z"/>
 <path d="M690 1820 c0 -5 7 -10 15 -10 8 0 15 5 15 10 0 6 -7 10 -15 10 -8 0 -15 -4 -15 -10z"/>
 <path d="M750 1790 c0 -5 7 -10 15 -10 8 0 15 5 15 10 0 6 -7 10 -15 10 -8 0 -15 -4 -15 -10z"/>
 <path d="M710 1760 c0 -5 7 -10 15 -10 8 0 15 5 15 10 0 6 -7 10 -15 10 -8 0 -15 -4 -15 -10z"/>
 <path d="M810 1760 c0 -5 7 -10 15 -10 8 0 15 5 15 10 0 6 -7 10 -15 10 -8 0 -15 -4 -15 -10z"/>
 <path d="M770 1730 c0 -5 7 -10 15 -10 8 0 15 5 15 10 0 6 -7 10 -15 10 -8 0 -15 -4 -15 -10z"/>
 <path d="M8797 1253 c-4 -3 -7 -11 -7 -17 0 -6 5 -5 12 2 6 6 9 14 7 17 -3 3 -9 2 -12 -2z"/>
 <path d="M8767 1193 c-4 -3 -7 -11 -7 -17 0 -6 5 -5 12 2 6 6 9 14 7 17 -3 3 -9 2 -12 -2z"/>
 <path d="M3460 430 c0 -5 7 -10 15 -10 8 0 15 5 15 10 0 6 -7 10 -15 10 -8 0 -15 -4 -15 -10z"/>
 <path d="M3520 400 c0 -5 7 -10 15 -10 8 0 15 5 15 10 0 6 -7 10 -15 10 -8 0 -15 -4 -15 -10z"/>
 <path d="M3480 370 c0 -5 7 -10 15 -10 8 0 15 5 15 10 0 6 -7 10 -15 10 -8 0 -15 -4 -15 -10z"/>
 <path d="M3540 340 c0 -5 7 -10 15 -10 8 0 15 5 15 10 0 6 -7 10 -15 10 -8 0 -15 -4 -15 -10z"/>
 <path d="M3600 310 c0 -5 7 -10 15 -10 8 0 15 5 15 10 0 6 -7 10 -15 10 -8 0 -15 -4 -15 -10z"/>
 <path d="M3660 280 c0 -5 7 -10 15 -10 8 0 15 5 15 10 0 6 -7 10 -15 10 -8 0 -15 -4 -15 -10z"/>
 </g>
<g id="layer5" fill="#2d3e48" stroke="none">
 <path d="M8900 11470 c0 -5 7 -10 15 -10 8 0 15 5 15 10 0 6 -7 10 -15 10 -8 0 -15 -4 -15 -10z"/>
 <path d="M3680 11420 c0 -5 5 -10 10 -10 6 0 10 5 10 10 0 6 -4 10 -10 10 -5 0 -10 -4 -10 -10z"/>
 <path d="M6240 8975 c0 -8 7 -15 15 -15 8 0 15 7 15 15 0 8 -7 15 -15 15 -8 0 -15 -7 -15 -15z"/>
 <path d="M8970 6185 c0 -8 7 -15 15 -15 8 0 15 7 15 15 0 8 -7 15 -15 15 -8 0 -15 -7 -15 -15z"/>
 <path d="M8970 6110 c0 -5 7 -10 15 -10 8 0 15 5 15 10 0 6 -7 10 -15 10 -8 0 -15 -4 -15 -10z"/>
 <path d="M10480 6100 c0 -5 7 -10 15 -10 8 0 15 5 15 10 0 6 -7 10 -15 10 -8 0 -15 -4 -15 -10z"/>
 <path d="M10260 6085 c0 -8 5 -15 10 -15 6 0 10 7 10 15 0 8 -4 15 -10 15 -5 0 -10 -7 -10 -15z"/>
 <path d="M10480 6025 c0 -8 7 -15 15 -15 8 0 15 7 15 15 0 8 -7 15 -15 15 -8 0 -15 -7 -15 -15z"/>
 <path d="M9710 5855 c0 -8 5 -15 10 -15 6 0 10 7 10 15 0 8 -4 15 -10 15 -5 0 -10 -7 -10 -15z"/>
 <path d="M3820 5570 c0 -5 5 -10 10 -10 6 0 10 5 10 10 0 6 -4 10 -10 10 -5 0 -10 -4 -10 -10z"/>
 <path d="M4100 4681 c0 -5 5 -13 10 -16 6 -3 10 -2 10 4 0 5 -4 13 -10 16 -5 3 -10 2 -10 -4z"/>
 <path d="M4130 4621 c0 -5 5 -13 10 -16 6 -3 10 -2 10 4 0 5 -4 13 -10 16 -5 3 -10 2 -10 -4z"/>
 <path d="M810 1710 c0 -5 7 -10 15 -10 8 0 15 5 15 10 0 6 -7 10 -15 10 -8 0 -15 -4 -15 -10z"/>
 <path d="M870 1680 c0 -5 7 -10 15 -10 8 0 15 5 15 10 0 6 -7 10 -15 10 -8 0 -15 -4 -15 -10z"/>
 <path d="M1030 1650 c0 -5 7 -10 15 -10 8 0 15 5 15 10 0 6 -7 10 -15 10 -8 0 -15 -4 -15 -10z"/>
 <path d="M32 518 l3 -483 887 -3 c707 -2 888 0 888 10 0 7 -46 37 -103 67 -56 30 -181 97 -277 149 -96 52 -204 110 -240 130 -36 19 -112 61 -170 92 -92 51 -166 90 -440 238 -36 19 -83 45 -105 57 -22 12 -80 44 -130 70 -49 26 -103 56 -120 65 -90 52 -166 90 -180 90 -13 0 -15 -53 -13 -482z"/>
 <path d="M3320 450 c0 -5 7 -10 15 -10 8 0 15 5 15 10 0 6 -7 10 -15 10 -8 0 -15 -4 -15 -10z"/>
 <path d="M3380 420 c0 -5 7 -10 15 -10 8 0 15 5 15 10 0 6 -7 10 -15 10 -8 0 -15 -4 -15 -10z"/>
 <path d="M3440 390 c0 -5 7 -10 15 -10 8 0 15 5 15 10 0 6 -7 10 -15 10 -8 0 -15 -4 -15 -10z"/>
 </g>
<g id="layer6" fill="#37596c" stroke="none">
 <path d="M3272 11809 c2 -7 10 -15 17 -17 8 -3 12 1 9 9 -2 7 -10 15 -17 17 -8 3 -12 -1 -9 -9z"/>
 <path d="M10427 11813 c-4 -3 -7 -11 -7 -17 0 -6 5 -5 12 2 6 6 9 14 7 17 -3 3 -9 2 -12 -2z"/>
 <path d="M3370 11711 c0 -13 29 -35 37 -28 7 8 -15 37 -28 37 -5 0 -9 -4 -9 -9z"/>
 <path d="M3580 11510 c0 -5 5 -10 10 -10 6 0 10 5 10 10 0 6 -4 10 -10 10 -5 0 -10 -4 -10 -10z"/>
 <path d="M9497 10543 c-4 -3 -7 -11 -7 -17 0 -6 5 -5 12 2 6 6 9 14 7 17 -3 3 -9 2 -12 -2z"/>
 <path d="M9870 9130 c0 -5 5 -10 10 -10 6 0 10 5 10 10 0 6 -4 10 -10 10 -5 0 -10 -4 -10 -10z"/>
 <path d="M9920 8895 c0 -8 5 -15 10 -15 6 0 10 7 10 15 0 8 -4 15 -10 15 -5 0 -10 -7 -10 -15z"/>
 <path d="M11140 8570 c0 -5 7 -10 15 -10 8 0 15 5 15 10 0 6 -7 10 -15 10 -8 0 -15 -4 -15 -10z"/>
 <path d="M10690 8030 c0 -5 5 -10 10 -10 6 0 10 5 10 10 0 6 -4 10 -10 10 -5 0 -10 -4 -10 -10z"/>
 <path d="M5980 7955 c-7 -9 -10 -18 -7 -22 8 -7 37 15 37 28 0 14 -16 11 -30 -6z"/>
 <path d="M4230 6775 c-13 -14 -20 -28 -17 -32 8 -7 57 35 57 49 0 15 -16 8 -40 -17z"/>
 <path d="M37 6683 c-4 -3 -7 -239 -7 -523 0 -402 3 -520 13 -527 6 -6 32 -17 57 -26 25 -8 155 -53 290 -100 135 -47 358 -124 495 -172 138 -48 367 -127 510 -177 143 -49 375 -130 515 -178 140 -49 575 -199 965 -335 391 -136 727 -252 748 -258 35 -10 52 -7 180 36 140 47 343 129 358 144 4 4 -18 62 -50 128 -118 243 -202 488 -240 702 -10 58 -25 111 -32 118 -8 7 -248 85 -534 173 -286 88 -1055 325 -1710 527 -655 202 -1239 382 -1300 400 -60 19 -139 43 -175 54 -73 23 -74 24 -83 14z"/>
 <path d="M32 3868 l3 -1721 1770 -888 c974 -489 1775 -889 1781 -889 6 0 124 190 261 423 137 232 434 733 658 1112 560 946 555 938 555 953 0 7 -24 43 -54 80 -62 78 -169 233 -212 309 -16 29 -33 53 -38 53 -5 0 -28 -11 -52 -25 -38 -22 -50 -40 -112 -163 -39 -75 -134 -272 -212 -437 -371 -787 -550 -1078 -652 -1063 -31 4 -100 143 -130 258 -20 74 -23 111 -23 295 0 237 10 303 72 460 48 121 105 212 186 300 62 68 69 80 92 162 15 52 60 158 112 262 76 151 88 182 91 236 4 60 3 62 -31 92 -55 48 -145 97 -477 261 -325 160 -406 212 -384 249 15 26 102 71 229 119 61 23 110 47 110 54 0 7 -16 19 -35 26 -79 28 -1978 687 -2015 699 -22 7 -359 124 -749 259 -389 135 -717 246 -727 246 -19 0 -19 -41 -17 -1722z"/>
 <path d="M10270 5400 c0 -5 5 -10 10 -10 6 0 10 5 10 10 0 6 -4 10 -10 10 -5 0 -10 -4 -10 -10z"/>
 <path d="M10430 3540 c0 -299 -99 -706 -262 -1073 -39 -88 -67 -162 -62 -167 5 -4 88 -35 184 -68 96 -33 263 -90 370 -127 107 -37 258 -88 335 -115 77 -27 304 -105 505 -173 320 -110 1431 -492 1825 -627 77 -27 291 -100 475 -163 674 -232 1012 -348 1310 -450 168 -58 424 -146 570 -196 146 -50 271 -89 277 -86 11 3 13 174 11 842 l-3 838 -100 32 c-55 17 -293 88 -530 158 -236 70 -578 171 -760 225 -181 54 -530 158 -775 230 -245 73 -571 169 -725 215 -154 46 -397 118 -540 160 -143 42 -287 85 -320 95 -33 10 -152 46 -265 79 -113 33 -374 110 -580 172 -206 61 -418 123 -470 139 -52 15 -172 51 -266 79 -94 28 -179 51 -188 51 -13 0 -16 -12 -16 -70z"/>
 <path d="M5066 2798 c-72 -112 -1436 -2432 -1436 -2443 0 -8 126 -77 309 -169 l310 -156 4383 2 4383 3 277 505 c153 278 278 512 278 521 0 12 -71 41 -297 119 -164 56 -514 176 -778 267 -715 246 -2089 718 -2259 776 l-149 50 -21 -25 c-12 -15 -49 -75 -84 -135 -125 -215 -266 -396 -462 -594 -154 -155 -285 -265 -446 -372 -127 -84 -329 -195 -372 -203 l-33 -7 20 50 c11 28 65 144 121 259 242 497 322 732 350 1025 14 150 1 319 -26 319 -24 0 -128 -142 -341 -462 -112 -169 -242 -360 -290 -425 -364 -500 -685 -760 -1052 -854 -84 -22 -141 -25 -141 -7 0 6 48 95 106 197 59 102 117 204 129 226 112 199 221 532 260 792 19 128 37 395 27 405 -4 4 -45 -4 -92 -18 -176 -52 -511 -134 -665 -163 -272 -51 -422 -64 -670 -58 -229 5 -348 21 -502 68 -36 11 -69 17 -74 12 -4 -4 -3 -28 2 -53 6 -25 9 -102 6 -175 -4 -105 -10 -146 -32 -215 -129 -402 -465 -671 -838 -671 -78 0 -96 3 -145 28 -108 54 -119 107 -55 244 71 151 315 540 566 904 54 76 97 144 96 150 0 5 -41 42 -90 80 -50 39 -124 105 -165 148 -41 42 -79 77 -84 77 -5 0 -16 -10 -24 -22z"/>
 <path d="M330 1950 c0 -5 7 -10 15 -10 8 0 15 5 15 10 0 6 -7 10 -15 10 -8 0 -15 -4 -15 -10z"/>
 <path d="M390 1920 c0 -5 7 -10 15 -10 8 0 15 5 15 10 0 6 -7 10 -15 10 -8 0 -15 -4 -15 -10z"/>
 <path d="M450 1890 c0 -5 7 -10 15 -10 8 0 15 5 15 10 0 6 -7 10 -15 10 -8 0 -15 -4 -15 -10z"/>
 <path d="M13593 1028 c-11 -18 -100 -179 -198 -358 -98 -179 -213 -389 -256 -468 -44 -78 -79 -149 -79 -157 0 -13 167 -15 1453 -13 l1452 3 0 110 0 110 -355 122 c-454 155 -1268 435 -1660 570 -168 58 -312 107 -321 110 -11 3 -23 -7 -36 -29z"/>
 <path d="M3100 560 c0 -5 7 -10 15 -10 8 0 15 5 15 10 0 6 -7 10 -15 10 -8 0 -15 -4 -15 -10z"/>
 <path d="M3160 530 c0 -5 7 -10 15 -10 8 0 15 5 15 10 0 6 -7 10 -15 10 -8 0 -15 -4 -15 -10z"/>
 <path d="M3220 500 c0 -5 7 -10 15 -10 8 0 15 5 15 10 0 6 -7 10 -15 10 -8 0 -15 -4 -15 -10z"/>
 </g>
<g id="layer7" fill="#ab2a2a" stroke="none">
 <path d="M3210 11947 c0 -14 298 -311 460 -458 528 -480 1135 -930 1613 -1198 70 -39 134 -71 142 -71 17 0 18 10 5 65 -69 285 -105 783 -98 1355 l3 315 -1062 3 c-863 2 -1063 0 -1063 -11z"/>
 <path d="M5367 11953 c-11 -10 -8 -836 3 -1005 44 -664 166 -1076 413 -1397 55 -71 174 -190 247 -246 71 -55 205 -135 225 -135 18 0 18 3 5 255 -15 301 -31 455 -46 455 -19 0 -21 -7 -34 -120 -14 -132 -18 -150 -31 -150 -13 0 -9 46 22 265 91 645 269 1181 629 1893 44 87 80 166 80 175 0 16 -55 17 -753 17 -415 0 -757 -3 -760 -7z"/>
 <path d="M8996 11952 c-12 -20 -26 -153 -41 -381 -35 -561 -88 -805 -212 -972 -51 -70 -53 -47 30 -254 85 -212 224 -485 247 -485 11 0 151 191 227 310 272 425 535 1023 646 1467 40 160 62 285 54 307 -6 14 -60 16 -476 16 -258 0 -472 -4 -475 -8z"/>
 <path d="M9986 11952 c-2 -4 -12 -50 -21 -102 -34 -202 -124 -507 -220 -752 -25 -62 -45 -116 -45 -120 0 -5 7 -8 17 -8 47 0 282 232 405 400 138 190 337 543 324 576 -4 11 -48 14 -230 14 -124 0 -227 -4 -230 -8z"/>
 </g>
<g id="layer8" fill="#476182" stroke="none">
 <path d="M35 11948 c-3 -7 -4 -1185 -3 -2618 l3 -2604 35 -13 c19 -6 87 -28 150 -47 63 -19 241 -74 395 -122 154 -47 366 -112 470 -144 105 -32 316 -97 470 -145 154 -48 307 -95 340 -105 68 -20 227 -69 455 -140 85 -27 202 -63 260 -80 58 -18 175 -54 260 -80 85 -27 261 -81 390 -120 129 -40 305 -94 391 -121 86 -27 163 -49 171 -49 13 0 16 33 21 213 4 160 10 233 26 298 87 376 286 665 606 880 198 133 493 248 705 275 90 11 96 15 109 81 46 233 291 484 546 558 33 10 72 22 87 27 39 14 129 113 170 188 99 180 162 514 170 904 l3 140 -87 50 c-132 77 -204 131 -309 236 -158 159 -282 368 -372 632 l-42 123 -90 49 c-651 353 -1428 948 -2035 1558 l-187 188 -1552 0 c-1232 0 -1553 -3 -1556 -12z"/>
 <path d="M10461 11894 c-17 -36 -31 -68 -31 -70 0 -2 -34 -66 -76 -141 -130 -234 -313 -485 -443 -605 -68 -63 -170 -139 -215 -159 -21 -10 -38 -33 -63 -89 -172 -375 -367 -709 -545 -938 -49 -63 -49 -63 -32 -90 31 -48 166 -182 254 -251 47 -37 155 -116 240 -176 225 -157 324 -239 345 -285 21 -46 15 -109 -15 -158 -11 -18 -20 -36 -20 -40 0 -4 188 -7 418 -7 391 -1 423 -2 517 -22 242 -53 347 -137 348 -277 1 -90 -34 -140 -225 -326 -241 -234 -381 -401 -471 -562 -39 -70 -81 -184 -72 -198 3 -5 26 -19 51 -32 60 -30 118 -96 146 -167 32 -82 32 -238 1 -298 -56 -105 -159 -163 -390 -223 -24 -6 -43 -16 -42 -23 0 -7 28 -25 62 -41 133 -63 249 -224 297 -411 86 -341 -30 -755 -263 -930 -41 -32 -136 -81 -189 -99 -15 -4 -18 -18 -18 -73 -1 -102 -19 -133 -178 -290 -110 -110 -145 -152 -170 -203 -32 -65 -58 -172 -47 -190 3 -6 53 -10 113 -10 388 0 616 -256 674 -755 l13 -110 295 -87 c162 -48 318 -94 345 -102 69 -21 445 -132 530 -157 39 -12 120 -36 180 -54 61 -18 205 -61 320 -95 116 -34 361 -106 545 -161 184 -55 367 -109 405 -120 39 -12 120 -36 180 -54 61 -18 220 -66 355 -105 135 -40 317 -94 405 -120 88 -27 176 -53 195 -58 19 -5 159 -47 310 -92 151 -45 295 -88 320 -95 100 -29 475 -139 625 -185 439 -132 508 -151 516 -143 5 5 8 2070 7 4974 l-3 4964 -2737 3 -2736 2 -31 -66z"/>
 </g>
<g id="layer9" fill="#4a5f85" stroke="none">
 <path d="M35 2098 c-3 -7 -4 -247 -3 -533 l3 -519 55 -31 c30 -17 100 -55 155 -84 55 -30 123 -66 150 -81 28 -15 104 -57 170 -92 178 -96 382 -206 450 -243 264 -143 579 -313 723 -392 l174 -93 1114 0 c885 0 1114 3 1114 13 0 6 -296 161 -657 342 -1334 670 -3438 1725 -3441 1725 -1 0 -5 -6 -7 -12z"/>
 </g>
<g id="layer10" fill="#ea711d" stroke="none">
 <path d="M5117 7189 c-315 -67 -605 -216 -820 -420 -218 -206 -353 -453 -413 -754 -24 -121 -24 -409 0 -550 45 -262 130 -514 266 -787 l60 -118 -23 -14 c-37 -24 -290 -120 -517 -196 -260 -87 -403 -151 -398 -177 5 -30 88 -77 433 -248 327 -163 416 -216 444 -267 28 -50 3 -139 -94 -332 -65 -130 -92 -196 -111 -274 -15 -61 -22 -108 -17 -113 9 -9 80 9 203 52 103 36 312 147 467 247 78 51 149 95 157 98 11 4 23 -6 38 -33 49 -83 200 -302 261 -378 96 -118 309 -321 412 -391 530 -361 1135 -385 2183 -89 106 30 197 55 204 55 16 0 3 -273 -21 -437 -56 -375 -154 -634 -396 -1049 -41 -71 -75 -134 -75 -141 0 -19 27 -16 125 12 232 68 432 200 670 446 198 204 283 318 622 824 208 310 343 494 370 502 32 11 54 -280 33 -443 -34 -275 -119 -515 -349 -987 -61 -125 -111 -230 -111 -232 0 -26 211 85 365 193 299 208 580 495 789 807 272 406 452 865 513 1310 18 134 20 390 4 503 -49 340 -215 579 -456 655 -62 19 -89 22 -237 20 -309 -3 -520 -42 -1508 -272 -1162 -270 -1602 -346 -2131 -367 -169 -7 -198 -3 -181 22 4 5 84 80 178 166 267 245 378 372 445 513 34 70 66 202 52 216 -13 13 -53 -2 -243 -91 -252 -119 -422 -167 -657 -185 -67 -5 -83 -4 -83 7 0 8 36 47 81 88 464 420 818 1118 931 1834 38 243 27 746 -17 746 -7 0 -40 -44 -73 -97 -112 -183 -209 -299 -315 -379 -195 -146 -390 -172 -571 -76 -79 41 -184 153 -232 247 -52 100 -74 168 -88 270 l-12 80 -34 2 c-19 1 -75 -7 -123 -18z"/>
 </g>
<g id="layer11" fill="#858585" stroke="none">
 <path d="M6930 11955 c0 -13 119 -15 1021 -15 812 0 1020 3 1017 13 -4 9 -219 13 -1021 15 -900 2 -1017 0 -1017 -13z"/>
 <path d="M6887 11873 c-4 -3 -7 -11 -7 -17 0 -6 5 -5 12 2 6 6 9 14 7 17 -3 3 -9 2 -12 -2z"/>
 <path d="M6857 11813 c-4 -3 -7 -11 -7 -17 0 -6 5 -5 12 2 6 6 9 14 7 17 -3 3 -9 2 -12 -2z"/>
 <path d="M8910 11640 c0 -5 7 -10 15 -10 8 0 15 5 15 10 0 6 -7 10 -15 10 -8 0 -15 -4 -15 -10z"/>
 <path d="M6727 11553 c-4 -3 -7 -11 -7 -17 0 -6 5 -5 12 2 6 6 9 14 7 17 -3 3 -9 2 -12 -2z"/>
 <path d="M7850 11035 c0 -8 5 -15 10 -15 6 0 10 7 10 15 0 8 -4 15 -10 15 -5 0 -10 -7 -10 -15z"/>
 <path d="M8230 11035 c0 -8 5 -15 10 -15 6 0 10 7 10 15 0 8 -4 15 -10 15 -5 0 -10 -7 -10 -15z"/>
 <path d="M8380 11025 c0 -8 5 -15 10 -15 6 0 10 7 10 15 0 8 -4 15 -10 15 -5 0 -10 -7 -10 -15z"/>
 <path d="M8490 10990 c0 -5 5 -10 10 -10 6 0 10 5 10 10 0 6 -4 10 -10 10 -5 0 -10 -4 -10 -10z"/>
 <path d="M8970 6145 c0 -16 6 -25 15 -25 9 0 15 9 15 25 0 16 -6 25 -15 25 -9 0 -15 -9 -15 -25z"/>
 <path d="M8180 6125 c0 -8 7 -15 15 -15 8 0 15 7 15 15 0 8 -7 15 -15 15 -8 0 -15 -7 -15 -15z"/>
 <path d="M8440 6125 c0 -8 7 -15 15 -15 8 0 15 7 15 15 0 8 -7 15 -15 15 -8 0 -15 -7 -15 -15z"/>
 <path d="M10480 6065 c0 -16 6 -25 15 -25 9 0 15 9 15 25 0 16 -6 25 -15 25 -9 0 -15 -9 -15 -25z"/>
 <path d="M9700 6065 c0 -8 7 -15 15 -15 8 0 15 7 15 15 0 8 -7 15 -15 15 -8 0 -15 -7 -15 -15z"/>
 <path d="M10110 5880 c0 -5 5 -10 10 -10 6 0 10 5 10 10 0 6 -4 10 -10 10 -5 0 -10 -4 -10 -10z"/>
 </g>
<g id="layer12" fill="#ffb591" stroke="none">
 <path d="M7839 11000 c-334 -23 -659 -97 -961 -219 -168 -67 -509 -252 -550 -298 -16 -18 -84 -292 -95 -381 -3 -26 2 -104 10 -172 33 -260 42 -421 42 -775 0 -369 -7 -472 -45 -690 -39 -220 -105 -397 -190 -503 -46 -59 -49 -72 -16 -72 42 0 155 -40 183 -65 29 -24 25 -48 -5 -27 -37 27 -108 55 -166 65 -195 33 -483 -127 -637 -354 -89 -132 -117 -239 -99 -377 45 -342 309 -594 578 -552 216 34 448 248 631 583 24 42 47 77 52 77 19 0 49 -159 58 -319 46 -760 -306 -1688 -858 -2263 -67 -69 -121 -131 -121 -138 0 -25 253 16 397 66 43 14 152 61 243 104 183 86 220 100 261 100 27 0 29 -2 29 -43 0 -110 -63 -257 -169 -394 -67 -86 -229 -250 -383 -387 -43 -38 -78 -75 -78 -83 0 -26 299 -13 610 27 351 46 772 128 1370 266 767 178 891 206 1105 249 121 25 283 52 360 60 221 25 209 20 217 85 17 134 57 201 229 376 143 145 169 184 169 252 0 56 -17 66 -94 58 -64 -6 -96 -1 -96 15 0 5 28 9 63 9 151 1 272 54 392 175 66 65 89 98 127 175 41 83 88 220 88 257 0 19 -25 16 -111 -12 -236 -75 -557 -82 -864 -20 -150 30 -352 88 -424 120 -71 33 -79 32 -86 -12 -25 -150 -95 -318 -180 -431 -72 -96 -214 -208 -252 -200 -13 2 1 16 46 47 75 51 165 139 210 205 48 70 107 200 130 290 34 128 31 132 -72 97 -244 -84 -883 -77 -1317 14 -205 44 -438 127 -521 186 -49 35 -54 20 -54 -162 1 -149 -5 -189 -19 -136 -11 43 -6 288 9 397 26 181 89 368 130 384 42 16 46 5 12 -33 -30 -33 -57 -88 -81 -167 -15 -50 122 -121 348 -180 280 -73 618 -114 928 -114 277 0 473 28 606 86 48 21 52 26 52 56 0 90 -57 233 -119 301 -45 49 -49 57 -25 57 39 0 102 -96 140 -215 l22 -70 55 -3 c106 -6 184 48 328 225 54 66 113 130 131 141 29 17 59 20 225 26 400 13 628 67 748 177 78 72 100 140 84 254 -17 128 -79 214 -187 265 -77 36 -185 59 -365 75 -283 26 -407 47 -407 69 0 9 22 8 85 -5 47 -10 167 -25 267 -34 101 -9 226 -25 278 -35 52 -11 98 -16 101 -12 4 4 14 32 24 62 59 183 220 398 522 694 190 186 233 244 233 312 0 104 -104 194 -274 238 -169 44 -487 52 -1165 27 -490 -18 -733 -8 -904 35 -87 22 -112 33 -100 45 6 6 25 4 53 -6 131 -46 441 -68 770 -55 249 10 301 21 349 75 25 29 31 44 31 82 0 45 -3 50 -62 108 -35 33 -121 101 -192 150 -238 166 -407 296 -486 374 -171 169 -286 391 -515 996 -68 178 -118 277 -155 309 -23 19 -44 24 -122 29 -183 13 -385 15 -509 7z m-1720 -3456 c55 -11 33 -24 -41 -24 -92 0 -156 -28 -216 -94 -64 -70 -86 -125 -86 -221 -1 -68 4 -90 28 -143 16 -34 46 -78 67 -97 91 -82 182 -24 315 201 7 10 15 15 20 11 11 -10 -34 -96 -84 -162 -57 -75 -109 -108 -179 -111 -32 -1 -77 -8 -101 -13 -106 -27 -195 41 -251 192 -21 59 -27 97 -13 97 4 0 20 -36 35 -80 21 -60 41 -94 76 -132 44 -48 51 -51 103 -56 68 -5 81 8 45 46 -14 15 -38 54 -54 87 -25 53 -28 71 -28 160 0 90 3 106 28 155 70 137 204 210 336 184z"/>
 <path d="M9720 6741 c-139 -5 -169 -9 -193 -25 -15 -10 -70 -71 -121 -136 -137 -170 -196 -213 -319 -234 l-72 -12 0 -34 c0 -32 2 -33 90 -67 116 -45 318 -96 470 -119 156 -24 500 -24 656 -1 143 22 245 46 258 61 14 17 -13 143 -51 234 -52 125 -152 238 -259 293 -21 10 -67 26 -101 34 -65 15 -77 15 -358 6z"/>
 </g>
<g id="layer13" fill="#ffffff" stroke="none">
 <path d="M6923 11948 c-21 -27 -284 -570 -341 -703 -101 -238 -242 -639 -242 -691 0 -22 13 -17 102 38 107 66 376 197 498 242 341 125 648 183 1025 193 213 6 471 -9 508 -28 12 -7 28 -19 35 -28 25 -31 75 -136 119 -250 25 -64 49 -120 54 -125 26 -28 119 132 159 274 33 120 57 281 74 485 24 301 40 517 40 560 l1 40 -1011 3 c-802 2 -1013 -1 -1021 -10z"/>
 <path d="M7026 6363 c-4 -9 -9 -42 -13 -73 l-6 -57 44 -30 c155 -106 452 -196 794 -238 170 -21 156 -26 148 46 -5 52 -3 64 16 90 27 36 20 49 -25 49 -19 0 -100 9 -182 21 -305 42 -583 114 -699 179 -61 35 -69 36 -77 13z"/>
 <path d="M8900 6208 c-136 -50 -415 -83 -634 -77 -117 4 -136 -2 -101 -31 24 -20 29 -75 11 -111 -10 -20 -13 -36 -7 -42 6 -6 111 -7 263 -4 271 5 369 19 493 68 l60 24 3 98 c3 111 6 109 -88 75z"/>
 <path d="M9027 6224 c-4 -4 -7 -47 -7 -96 l0 -88 59 -30 c79 -39 262 -94 440 -131 115 -24 182 -32 314 -36 115 -4 167 -2 167 5 0 6 -13 24 -30 40 -21 21 -30 40 -30 62 0 34 25 90 40 90 6 0 10 7 10 15 0 13 -21 15 -129 15 -252 0 -564 60 -812 155 -8 3 -18 2 -22 -1z"/>
 <path d="M10425 6124 c-64 -17 -240 -44 -293 -44 -54 0 -60 -14 -23 -49 23 -22 31 -38 31 -65 0 -45 -18 -84 -42 -91 -10 -4 -18 -13 -18 -21 0 -16 -2 -16 151 11 83 15 204 51 248 75 20 10 22 18 19 102 -2 50 -7 92 -13 94 -5 1 -32 -4 -60 -12z"/>
 </g>

</svg>